<svg xmlns="http://www.w3.org/2000/svg" viewBox="0 0 48 32" fill="none">
  <!-- Card body -->
  <rect x="1" y="6" width="20" height="20" rx="2" stroke="currentColor" stroke-width="2" fill="none"/>
  <!-- Card chip -->
  <rect x="5" y="11" width="7" height="10" rx="1" stroke="currentColor" stroke-width="1.5" fill="none"/>
  <!-- RFID arcs -->
  <path d="M27 16 A5 5 0 0 1 32 11" stroke="currentColor" stroke-width="2" stroke-linecap="round" fill="none"/>
  <path d="M27 16 A5 5 0 0 0 32 21" stroke="currentColor" stroke-width="2" stroke-linecap="round" fill="none"/>
  <path d="M27 16 A11 11 0 0 1 38 5" stroke="currentColor" stroke-width="2" stroke-linecap="round" fill="none"/>
  <path d="M27 16 A11 11 0 0 0 38 27" stroke="currentColor" stroke-width="2" stroke-linecap="round" fill="none"/>
  <path d="M27 16 A17 17 0 0 1 44 -1" stroke="currentColor" stroke-width="2" stroke-linecap="round" fill="none"/>
  <path d="M27 16 A17 17 0 0 0 44 33" stroke="currentColor" stroke-width="2" stroke-linecap="round" fill="none"/>
</svg>
