<svg xmlns="http://www.w3.org/2000/svg" xmlns:xlink="http://www.w3.org/1999/xlink" width="1080" zoomAndPan="magnify" viewBox="0 0 810 809.999993" height="1080" preserveAspectRatio="xMidYMid meet" version="1.2"><defs><clipPath id="5a35a97e45"><path d="M 92.832031 119 L 728.832031 119 L 728.832031 705.746094 L 92.832031 705.746094 Z M 92.832031 119 "/></clipPath></defs><g id="1357357c85"><g clip-rule="nonzero" clip-path="url(#5a35a97e45)"><path style=" stroke:none;fill-rule:evenodd;fill:#000000;fill-opacity:1;" d="M 384.03125 126.488281 C 373.566406 133.152344 368.066406 140.152344 356.808594 161.148438 C 349.046875 175.617188 341.484375 189.449219 340.007812 191.882812 C 338.527344 194.316406 324.417969 220.195312 308.652344 249.398438 C 292.886719 278.59375 277.761719 306.46875 275.046875 311.335938 C 265.3125 328.777344 216.640625 418.03125 202.675781 444.058594 C 194.84375 458.660156 184.867188 477.242188 180.511719 485.351562 C 176.152344 493.464844 156.488281 529.660156 136.8125 565.792969 C 103.042969 627.804688 98.523438 639.050781 102.832031 650.28125 C 106.554688 659.984375 160.402344 629.308594 249.992188 566.453125 C 254.855469 563.039062 274.101562 550.433594 292.753906 538.441406 C 311.410156 526.453125 330.65625 513.859375 335.523438 510.453125 C 410.960938 457.691406 406.285156 456.894531 535.714844 544.503906 C 540.378906 547.660156 549.175781 553.558594 555.257812 557.613281 C 561.34375 561.671875 570.136719 567.570312 574.800781 570.71875 C 579.464844 573.875 598.542969 586.355469 617.199219 598.464844 C 635.851562 610.570312 662.71875 628.234375 676.910156 637.710938 C 719.726562 666.328125 730.460938 655.210938 705.230469 608.375 C 698.496094 595.867188 689.390625 579 685 570.886719 C 670.835938 544.726562 548.992188 320.722656 539.808594 303.960938 C 534.921875 295.039062 526.917969 280.441406 522.027344 271.515625 C 517.132812 262.59375 509.378906 248.304688 504.792969 239.761719 C 500.214844 231.21875 492.636719 217.28125 487.964844 208.789062 C 475.09375 185.425781 457.585938 153.089844 452.703125 143.660156 C 440.527344 120.144531 407.125 111.792969 384.03125 126.488281 M 422.757812 165.109375 C 427.5 169.851562 431.382812 175.90625 431.382812 178.566406 C 431.382812 181.222656 434.628906 190.285156 438.597656 198.703125 C 447.675781 217.941406 463.09375 254.558594 468.640625 270.042969 C 470.964844 276.53125 474.832031 285.824219 477.230469 290.691406 C 481.730469 299.808594 488.824219 317.0625 514.214844 380.644531 C 522.3125 400.925781 530.1875 419.773438 531.710938 422.535156 C 539.953125 437.453125 556.402344 484.253906 557.558594 496.070312 C 560.085938 521.949219 530.75 532.394531 510.738281 512.75 C 507.371094 509.445312 478.945312 488.519531 439.90625 460.609375 C 423.949219 449.199219 389.46875 451.730469 371.097656 465.660156 C 301.746094 518.246094 295.582031 522.222656 283.375 522.222656 C 268.355469 522.222656 260.3125 514.121094 260.3125 498.984375 C 260.3125 488.878906 262.441406 481.484375 271.882812 458.808594 C 279.046875 441.59375 296.542969 399.703125 305.804688 377.578125 C 311.605469 363.71875 316.351562 351.371094 316.351562 350.128906 C 316.351562 348.886719 320.335938 339.847656 325.203125 330.039062 C 330.066406 320.230469 334.046875 310.90625 334.046875 309.316406 C 334.046875 307.722656 338.113281 296.910156 343.085938 285.285156 C 348.054688 273.65625 356.8125 252.859375 362.539062 239.074219 C 368.265625 225.285156 374.765625 210.019531 376.980469 205.152344 C 379.195312 200.285156 384.242188 188.816406 388.195312 179.664062 C 398.859375 154.972656 408.542969 150.894531 422.757812 165.109375 M 402.441406 183.84375 C 400.726562 185.910156 391.414062 206.238281 381.746094 229.027344 C 372.085938 251.8125 361.589844 276.335938 358.425781 283.519531 C 355.265625 290.707031 350.917969 301.230469 348.769531 306.910156 C 346.617188 312.589844 343.746094 318.707031 342.386719 320.503906 C 341.027344 322.300781 337.277344 331.449219 334.046875 340.828125 C 330.820312 350.210938 326.839844 359.5 325.203125 361.476562 C 323.558594 363.453125 319.703125 372.222656 316.625 380.96875 C 313.546875 389.710938 304.804688 410.804688 297.191406 427.835938 C 261.371094 508.019531 263 527.84375 303.328125 502.3125 C 319.082031 492.332031 320.347656 487.695312 305.292969 495.089844 C 279.484375 507.769531 278.144531 497.414062 299.859375 453.050781 C 308.628906 435.128906 333.746094 383.8125 355.667969 339.019531 C 413.632812 220.589844 405.257812 218.03125 482.230469 377.699219 C 489.664062 393.109375 504.488281 423.605469 515.175781 445.46875 C 540.058594 496.363281 539.675781 510.878906 513.859375 495.183594 C 499.667969 486.550781 499.871094 491.023438 514.132812 501.359375 C 529.082031 512.1875 544.964844 513.726562 547.851562 504.625 C 550.792969 495.367188 548.425781 488.949219 505.917969 390.972656 C 500.285156 377.992188 492.296875 358.75 488.160156 348.203125 C 484.023438 337.65625 479.5 327.558594 478.113281 325.761719 C 476.726562 323.960938 472.953125 314.816406 469.722656 305.433594 C 466.496094 296.054688 462.746094 286.90625 461.386719 285.109375 C 460.023438 283.3125 457.160156 277.195312 455.011719 271.515625 C 452.863281 265.839844 447.855469 253.894531 443.886719 244.972656 C 439.914062 236.050781 434.160156 222.113281 431.097656 214.003906 C 419.984375 184.570312 410.296875 174.375 402.441406 183.84375 M 381.238281 504.121094 C 375.5625 507.015625 362.289062 514.933594 351.746094 521.722656 C 341.203125 528.507812 328.59375 536.105469 323.726562 538.605469 C 318.859375 541.105469 305.960938 548.726562 295.066406 555.542969 C 284.167969 562.359375 264.257812 574.421875 250.820312 582.355469 C 237.386719 590.28125 221.75 599.769531 216.070312 603.4375 C 210.394531 607.105469 193.140625 617.714844 177.726562 627.007812 C 162.316406 636.304688 144.398438 647.34375 137.910156 651.53125 C 131.421875 655.722656 125.648438 659.445312 125.078125 659.804688 C 124.511719 660.160156 124.871094 661.789062 125.878906 663.417969 C 128.320312 667.371094 153.859375 658.394531 217.542969 631.1875 C 220.789062 629.800781 228.753906 626.480469 235.242188 623.800781 C 241.730469 621.125 266.285156 610.996094 289.808594 601.289062 C 313.332031 591.582031 342.527344 579.535156 354.695312 574.519531 C 387.128906 561.144531 431.226562 561.113281 463.824219 574.441406 C 475.992188 579.414062 517.136719 596.359375 555.257812 612.101562 C 662.601562 656.414062 681.542969 663.796875 687.9375 663.796875 C 696.050781 663.796875 695.417969 659.039062 686.683594 654.371094 C 674.109375 647.652344 643.40625 629.023438 602.449219 603.261719 C 596.773438 599.691406 581.132812 590.28125 567.695312 582.355469 C 554.261719 574.421875 534.355469 562.359375 523.457031 555.542969 C 512.558594 548.726562 499.660156 541.101562 494.796875 538.601562 C 489.929688 536.105469 477.980469 528.78125 468.25 522.324219 C 430.1875 497.082031 405.277344 491.871094 381.238281 504.121094 M -107.238281 744.617188 C -159.59375 768.992188 -159.871094 846.433594 -107.699219 872.488281 C -95.5625 878.550781 -90.324219 879.105469 -45.371094 879.105469 L 3.710938 879.105469 L 3.710938 852.5625 L -37.976562 852.5625 C -101.0625 852.5625 -120.167969 842.335938 -120.167969 808.5625 C -120.167969 774.273438 -101.832031 764.078125 -40.171875 764.078125 L 3.710938 764.078125 L 3.710938 737.53125 L -44.21875 737.558594 C -88.492188 737.585938 -93.296875 738.125 -107.238281 744.617188 M 21.40625 808.316406 L 21.40625 879.105469 L 45.003906 879.105469 L 45.003906 764.078125 L 86.085938 764.078125 C 130.472656 764.078125 136.433594 765.980469 136.433594 780.148438 C 136.433594 791.617188 130.625 793.351562 89.351562 794.222656 L 50.027344 795.042969 L 90.621094 837.078125 L 131.210938 879.105469 L 148.570312 879.105469 C 170.578125 879.105469 170.707031 879.597656 140.597656 849.347656 L 115.273438 823.902344 L 126.773438 822.066406 C 165.078125 815.9375 176.703125 764.027344 144.054688 744.894531 C 131.875 737.757812 129.816406 737.53125 76.449219 737.53125 L 21.40625 737.53125 L 21.40625 808.316406 M 217.542969 744.675781 C 164.9375 769.960938 164.722656 844.0625 217.175781 871.984375 C 229.714844 878.660156 233.503906 879.105469 277.875 879.105469 L 325.203125 879.105469 L 325.203125 852.5625 L 284.988281 852.5625 C 233.972656 852.5625 207.222656 842.988281 207.222656 824.738281 C 207.222656 823.816406 233.765625 823.066406 266.210938 823.066406 L 325.203125 823.066406 L 325.203125 793.574219 L 206.679688 793.574219 L 212.253906 783.984375 C 221.910156 767.398438 232.515625 764.378906 281.699219 764.21875 L 325.203125 764.078125 L 325.203125 737.53125 L 278.746094 737.558594 C 235.785156 737.585938 231.183594 738.121094 217.542969 744.675781 M 397.5 773.65625 C 386.285156 793.53125 373.933594 815.765625 370.046875 823.066406 C 366.15625 830.363281 361.917969 837.667969 360.625 839.289062 C 357.574219 843.113281 339.945312 875.855469 339.945312 877.699219 C 339.945312 883.273438 369.871094 878.480469 372.601562 872.46875 C 374.261719 868.816406 380.710938 857.203125 386.933594 846.664062 C 393.15625 836.117188 402.6875 819.128906 408.117188 808.917969 C 417.0625 792.074219 418.347656 790.835938 421.878906 795.644531 C 426.703125 802.207031 452.027344 848.4375 452.027344 850.679688 C 452.027344 851.578125 442.039062 852.699219 429.828125 853.175781 L 407.632812 854.035156 L 392.703125 879.105469 L 498.996094 879.105469 L 488.359375 859.195312 C 482.511719 848.246094 474.019531 832.652344 469.492188 824.539062 C 464.96875 816.429688 457.222656 802.492188 452.285156 793.574219 C 416.269531 728.503906 421.824219 730.523438 397.5 773.65625 M 511.015625 801.765625 C 511.015625 886.472656 504.960938 879.105469 574.597656 879.105469 L 628.996094 879.105469 L 628.996094 852.5625 L 540.511719 852.5625 L 540.511719 737.53125 L 511.015625 737.53125 L 511.015625 801.765625 M 643.742188 808.316406 L 643.742188 879.105469 L 670.289062 879.105469 L 670.289062 737.53125 L 643.742188 737.53125 L 643.742188 808.316406 M 685.035156 750.804688 L 685.035156 764.078125 L 741.074219 764.078125 L 741.074219 879.105469 L 767.617188 879.105469 L 767.617188 764.078125 L 822.226562 764.078125 L 846.535156 793.582031 L 870.847656 823.09375 L 870.847656 879.105469 L 897.394531 879.105469 L 897.394531 850.734375 C 897.394531 824.082031 897.886719 821.789062 905.507812 812.78125 C 909.96875 807.507812 917.257812 798.703125 921.703125 793.21875 C 926.152344 787.734375 937.765625 773.570312 947.511719 761.742188 C 968.96875 735.703125 968.910156 737.488281 948.273438 737.726562 L 931.3125 737.917969 L 914.214844 759.109375 C 904.8125 770.761719 894.3125 784.09375 890.886719 788.734375 L 884.660156 797.164062 L 874.859375 785.78125 C 869.464844 779.519531 858.722656 766.136719 850.988281 756.039062 L 836.929688 737.679688 L 760.984375 737.601562 L 685.035156 737.53125 L 685.035156 750.804688 "/></g></g></svg>