<?xml version="1.0" standalone="no"?>
<!DOCTYPE svg PUBLIC "-//W3C//DTD SVG 20010904//EN"
 "http://www.w3.org/TR/2001/REC-SVG-20010904/DTD/svg10.dtd">
<svg version="1.0" xmlns="http://www.w3.org/2000/svg"
 width="256.000000pt" height="256.000000pt" viewBox="0 0 256.000000 256.000000"
 preserveAspectRatio="xMidYMid meet">

<g transform="translate(0.000000,256.000000) scale(0.100000,-0.100000)"
fill="#000000" stroke="none">
<path d="M505 2549 c-278 -40 -455 -220 -495 -504 -5 -40 -10 -368 -10 -765 0
-397 5 -725 10 -765 40 -288 217 -465 505 -505 92 -13 1438 -13 1530 0 114 16
201 49 279 104 127 91 201 223 226 401 13 92 13 1438 0 1530 -40 288 -217 465
-505 505 -86 12 -1455 11 -1540 -1z m1308 -412 c38 -14 70 -27 73 -29 3 -4
-29 -166 -42 -210 -4 -15 -9 -15 -51 4 -25 11 -71 22 -102 25 -47 4 -61 1 -90
-19 -19 -12 -45 -43 -58 -68 -15 -30 -59 -214 -127 -535 -57 -269 -114 -517
-127 -550 -48 -131 -133 -221 -238 -251 -78 -23 -214 -15 -304 19 -38 14 -70
27 -73 29 -3 4 29 166 42 210 4 15 9 15 51 -4 25 -11 71 -22 102 -25 47 -4 61
-1 90 19 19 12 45 43 58 68 15 30 59 214 127 535 57 270 114 517 127 550 46
126 124 212 223 247 74 27 226 20 319 -15z"/>
</g>
</svg>
