<?xml version="1.0" encoding="UTF-8"?>
<svg id="Calque_1" data-name="Calque 1" xmlns="http://www.w3.org/2000/svg" viewBox="0 0 396.85 396.85">
  <defs>
    <style>
      .cls-1 {
        fill: #000000;
      }

      .cls-2 {
        fill: #ffffff;
      }
    </style>
  </defs>
  <rect class="cls-1" width="396.85" height="396.85"/>
  <g>
    <path class="cls-2" d="m167.63,137.21s2.31-.98,4.44-.81c1.57.57-2.58-3.41-2.65-3.47-1.25-.98-4.3-2.06-5.51-2.43,0,0-3.97-1.2-5.16-1.28.46,1.51,2.07,4.86,2.07,4.86,1.55,3.3,4.13,3.42,6.81,3.13Z"/>
    <path class="cls-2" d="m216.63,136.4c2.13-.17,4.44.81,4.44.81,2.68.29,5.26.17,6.81-3.13,0,0,1.61-3.36,2.07-4.86-1.19.08-5.16,1.28-5.16,1.28-1.22.37-4.27,1.45-5.51,2.43-.06.07-4.22,4.04-2.65,3.47Z"/>
    <path class="cls-2" d="m178.21,205.87c1.28-.32,7.16-2.72,8.95-4.47,2.62-2.58,3.91-3.94,4.29-6,.65-3.54.03-4.57-.88-5.93-.98-1.46-2.26-2.87-3.66-3.59-.95-.49-3.12-.93-4.4-1.15-.69-.12-3.45-.19-5.77-2.7l-.61-.77c-1.22-1.53-1.83-3.42-1.73-5.34l.58-12.19v-13.13c0-1.04-.24-2.06-.7-3l-.59-1.2c-.59-1.2-1.43-2.29-2.56-3.07-.68-.47-1.41-.83-2.08-.81l-3.69.32c-1.71.15-3.44-.08-5-.77-.81-.36-1.25-.69-1.25-.69-1.97-1.07-3.02-2.78-3.92-4.76l-1.99-4.4c-.22-.42-.48-.82-.76-1.21l-3.15-4.24c-1.19-1.97-1.6-3.96-1.31-6.22l1.21-6.4c-.34-.22-6.78,8.25-6.78,8.25,0,0-2.53,4.91-2.72,8.25-.4,6.92,1.74,18.08,2.64,19.82,1.1,2.13,8.71,15.64,8.71,15.64,0,0,.6.54.83.07.21-.42,1.67-3.18,3.09-4.34,2.09-1.72,8.5-5.5,10.32-6.33,1.82-.83,2.77-4.24,3.43-3.84.65.4-1.08,4.92-1.08,4.92,0,0-1.82,4.65-3.63,7.08-.67.89-4.07,9.09-4.32,9.79-.39,1.12-.9,3.05-1.34,5.02-.45,2,.03,4.1,1.36,5.7,4.65,5.66,11.99,9.07,14.63,10.22.2.09-.15.45-.37.44-3.9-.24-16.33-1.65-16.27-1.43.08.25,6.09,6.63,7.95,9.3,1.86,2.67,9.72,3.82,12.58,3.12Z"/>
    <path class="cls-2" d="m214.74,194.89c-.22.01-.57-.35-.37-.44,2.64-1.16,9.98-4.56,14.63-10.22,1.32-1.61,1.8-3.71,1.36-5.7-.44-1.96-.94-3.9-1.34-5.02-.24-.69-3.65-8.89-4.32-9.79-1.82-2.43-3.63-7.08-3.63-7.08,0,0-1.73-4.52-1.08-4.92.65-.4,1.61,3.01,3.43,3.84s8.23,4.6,10.32,6.33c1.41,1.17,2.87,3.92,3.09,4.34.24.47.83-.07.83-.07,0,0,7.61-13.52,8.71-15.64.9-1.75,3.04-12.9,2.64-19.82-.19-3.35-2.72-8.25-2.72-8.25,0,0-6.44-8.47-6.78-8.25l1.21,6.4c.29,2.25-.11,4.25-1.31,6.22l-3.15,4.24c-.29.38-.54.79-.76,1.21l-1.99,4.4c-.9,1.98-1.95,3.69-3.92,4.76,0,0-.44.32-1.25.69-1.55.69-3.29.92-5,.77l-3.69-.32c-.67-.02-1.4.34-2.08.81-1.12.78-1.97,1.87-2.56,3.07l-.59,1.2c-.46.94-.7,1.96-.7,3v13.13l.58,12.19c.1,1.92-.51,3.81-1.73,5.34l-.61.77c-2.32,2.51-5.09,2.58-5.77,2.7-1.29.23-3.45.66-4.4,1.15-1.4.72-2.69,2.12-3.66,3.59-.91,1.36-1.53,2.39-.88,5.93.38,2.06,1.67,3.43,4.29,6,1.79,1.76,7.66,4.16,8.95,4.47,2.86.7,10.72-.45,12.58-3.12,1.86-2.67,7.87-9.05,7.95-9.3.06-.21-12.37,1.19-16.27,1.43Z"/>
    <path class="cls-2" d="m156.67,210.64c-.93-1.81-1.69-3.69-2.26-5.63l-8.19-27.52c-.24-.86-.11-1.85-.35-1.87-.28-.02-.78,1.57-.87,1.89l-.22.82c-1.28,4.79-1.57,9.77-.86,14.66l.55,6.11c0,.06-.07.08-.09.02,0,0-2.4-3.86-4.11-8.21-3.37-7.03-4.56-14.06-4.96-19.18l-.16-15.89c-.02-.55,0-1.11.03-1.66l1.2-16.63c.01-.21-.29-.26-.36-.07l-10.9,30.66c-4.85,14.13-3.23,21.31,3.27,27.9,7.15,7.24,17.39,21.3,17.39,21.3.06.07.18.01.16-.08,0,0-1.41-11.43-2.26-13.83-.03-.07.07-.12.11-.06,0,0,4.14,2.75,7.98,11.26,2.5,5.63,12.48,12.91,12.48,12.91.4.41,1.09-.04.83-.54l-8.42-16.35Z"/>
    <path class="cls-2" d="m252.3,137.55l1.2,16.63c.04.55.05,1.11.03,1.66l-.16,15.89c-.4,5.12-1.59,12.15-4.96,19.18-1.7,4.34-4.11,8.21-4.11,8.21-.02.05-.1.03-.09-.02l.55-6.11c.71-4.89.42-9.87-.86-14.66l-.22-.82c-.08-.32-.59-1.9-.87-1.89-.24.02-.11,1.01-.35,1.87l-8.19,27.52c-.58,1.94-1.33,3.82-2.26,5.63l-8.42,16.35c-.26.5.43.95.83.54,0,0,9.97-7.28,12.48-12.91,3.84-8.5,7.98-11.26,7.98-11.26.05-.06.14-.01.11.06-.85,2.4-2.26,13.83-2.26,13.83-.02.09.09.14.16.08,0,0,10.23-14.06,17.39-21.3,6.51-6.59,8.12-13.77,3.27-27.9l-10.9-30.66c-.07-.2-.38-.14-.36.07Z"/>
    <path class="cls-2" d="m218.3,213.58c-1.34.32-4.41.88-8.19.36-5.11-.7-11.57-6.22-15.5-6.65h-.53c-3.94.43-10.39,5.95-15.5,6.65-3.79.52-6.85-.04-8.19-.36-.28-.07-.5.21-.37.45l4.48,8.32c.41.84.94,1.63,1.57,2.33l6.55,7.31c.19.21.55.08.53-.2-.12-1.91-.4-6.42-.43-7.25-.08-2.04.66-3.62,1.63-2.54.97,1.08,9.73,16.62,9.99,16.62s9.03-15.54,9.99-16.62c.97-1.08,1.7.5,1.63,2.54-.03.83-.31,5.34-.43,7.25-.02.28.35.41.53.2l6.55-7.31c.63-.71,1.16-1.49,1.57-2.33l4.48-8.32c.13-.24-.09-.52-.37-.45Z"/>
    <path class="cls-2" d="m335.99,350.79h-77.82c-1.25,0-2.26,1.01-2.26,2.26s1.01,2.26,2.26,2.26h77.82c1.25,0,2.26-1.01,2.26-2.26s-1.01-2.26-2.26-2.26Z"/>
    <path class="cls-2" d="m126.79,350.79H48.24c-1.25,0-2.26,1.01-2.26,2.26s1.01,2.26,2.26,2.26h78.54c1.25,0,2.26-1.01,2.26-2.26s-1.01-2.26-2.26-2.26Z"/>
    <polygon class="cls-2" points="72.24 315.61 72.24 284.5 83.99 284.5 83.99 274.71 49.2 274.71 49.2 284.5 61 284.5 61 315.61 72.24 315.61"/>
    <rect class="cls-2" x="88.08" y="274.71" width="11.23" height="40.9"/>
    <polygon class="cls-2" points="177.53 284.5 177.53 274.71 148.9 274.71 148.9 315.61 178.05 315.61 178.05 305.81 160.13 305.81 160.13 299.36 174.99 299.36 174.99 290.26 160.13 290.26 160.13 284.5 177.53 284.5"/>
    <path class="cls-2" d="m218.6,315.61l-8.64-15.03c1.23-.88,2.28-1.93,3.17-3.14.88-1.21,1.56-2.54,2.02-4,.46-1.46.69-2.98.69-4.55,0-1.73-.34-3.44-1.01-5.13-.67-1.69-1.62-3.22-2.85-4.58-1.23-1.36-2.69-2.45-4.38-3.25s-3.53-1.21-5.53-1.21h-18.78v40.9h11.23v-12.56h4.55l7.2,12.56h12.33Zm-14.6-24.37c-.29.65-.64,1.15-1.07,1.5s-.86.52-1.32.52h-7.09v-8.76h6.8c.46,0,.93.17,1.41.52s.88.83,1.21,1.47c.33.63.49,1.43.49,2.39s-.14,1.71-.43,2.36Z"/>
    <polygon class="cls-2" points="265.37 274.71 230.57 274.71 230.57 284.5 242.38 284.5 242.38 315.61 253.62 315.61 253.62 284.5 265.37 284.5 265.37 274.71"/>
    <path class="cls-2" d="m273.55,315.61l2.11-8.01h11.55l2.11,8.01h11.4l-13.02-40.9h-12.56l-13.07,40.9h11.46Zm7.89-29.89l3.8,14.4h-7.6l3.8-14.4Z"/>
    <path class="cls-2" d="m126.55,301.9h7.1c-1.07,1.11-2.23,2-3.47,2.68-1.65.9-3.38,1.35-5.18,1.35-1.42,0-2.71-.26-3.86-.78-1.15-.52-2.14-1.25-2.97-2.19-.83-.94-1.47-2.06-1.93-3.37-.46-1.3-.69-2.77-.69-4.38s.22-3.02.66-4.35c.44-1.32,1.07-2.47,1.9-3.43.83-.96,1.8-1.71,2.91-2.25,1.11-.54,2.34-.81,3.69-.81,1.8,0,3.51.49,5.13,1.47s2.82,2.28,3.63,3.89l8.35-6.39c-1.46-2.77-3.69-4.94-6.68-6.54-3-1.59-6.34-2.39-10.02-2.39-2.96,0-5.7.52-8.24,1.56-2.53,1.04-4.75,2.49-6.65,4.35-1.9,1.86-3.39,4.02-4.46,6.48-1.08,2.46-1.61,5.13-1.61,8.01,0,3.34.53,6.31,1.58,8.9,1.06,2.59,2.51,4.8,4.35,6.62,1.84,1.82,3.97,3.21,6.37,4.15,2.4.94,4.92,1.41,7.57,1.41,3.79,0,7.14-1.25,10.08-3.72v3.43h9.27v-21.77h-16.82v8.06Z"/>
    <path class="cls-2" d="m322.68,301.9h7.1c-1.07,1.11-2.23,2-3.47,2.68-1.65.9-3.38,1.35-5.18,1.35-1.42,0-2.71-.26-3.86-.78-1.15-.52-2.14-1.25-2.97-2.19-.83-.94-1.47-2.06-1.93-3.37-.46-1.3-.69-2.77-.69-4.38s.22-3.02.66-4.35c.44-1.32,1.07-2.47,1.9-3.43.83-.96,1.8-1.71,2.91-2.25,1.11-.54,2.34-.81,3.69-.81,1.8,0,3.51.49,5.13,1.47s2.82,2.28,3.63,3.89l8.35-6.39c-1.46-2.77-3.69-4.94-6.68-6.54-3-1.59-6.34-2.39-10.02-2.39-2.96,0-5.7.52-8.24,1.56s-4.75,2.49-6.65,4.35c-1.9,1.86-3.39,4.02-4.46,6.48s-1.61,5.13-1.61,8.01c0,3.34.53,6.31,1.58,8.9,1.06,2.59,2.51,4.8,4.35,6.62,1.84,1.82,3.97,3.21,6.37,4.15,2.4.94,4.92,1.41,7.57,1.41,3.79,0,7.14-1.25,10.08-3.72v3.43h9.27v-21.77h-16.82v8.06Z"/>
    <path class="cls-2" d="m166.89,350.93c.91-.97,1.6-2.1,2.08-3.39.48-1.29.73-2.65.73-4.05s-.26-2.72-.77-4.03c-.52-1.31-1.25-2.5-2.2-3.56-.95-1.06-2.08-1.9-3.37-2.53-1.29-.62-2.71-.94-4.24-.94h-14.7v33.24h6.46v-11.14h6.46l6.84,11.14h7.12l-7.59-12.5c1.22-.53,2.28-1.28,3.18-2.25Zm-4.26-4.73c-.38.81-.87,1.46-1.5,1.94-.62.48-1.34.73-2.15.73h-8.1v-10.77h7.82c.78,0,1.51.23,2.18.7.67.47,1.23,1.1,1.66,1.9.44.8.66,1.73.66,2.79,0,1-.19,1.9-.56,2.72Z"/>
    <polygon class="cls-2" points="175.55 365.68 182.01 365.68 182.01 351.92 195.21 351.92 195.21 346.67 182.01 346.67 182.01 338.1 197.88 338.1 197.88 332.44 175.55 332.44 175.55 365.68"/>
    <rect class="cls-2" x="202.42" y="332.44" width="6.46" height="33.24"/>
    <path class="cls-2" d="m236.98,334.66c-2.43-1.48-5.46-2.22-9.08-2.22h-12.08v33.24h12.08c3.34,0,6.23-.69,8.68-2.06,2.45-1.37,4.35-3.31,5.69-5.81,1.34-2.5,2.01-5.43,2.01-8.8,0-3.06-.61-5.84-1.83-8.36-1.22-2.51-3.04-4.51-5.48-5.99Zm-.35,19.99c-.77,1.67-1.88,2.98-3.35,3.93-1.47.95-3.26,1.43-5.38,1.43h-5.62v-21.91h5.62c2.09,0,3.87.46,5.34,1.38,1.47.92,2.59,2.2,3.37,3.84.78,1.64,1.17,3.53,1.17,5.69s-.38,3.97-1.15,5.64Z"/>
    <path class="cls-2" d="m384.73,136.85l-92.5,2.86c.1-3.19.14-6.12.15-8.58l24.73-.23c1.81-.02,3.63-.45,5.26-1.24l8.6-4.18c.11.11.21.23.32.34,1.85,1.82,4.29,2.81,6.88,2.81.03,0,.06,0,.1,0,2.63-.02,5.09-1.07,6.93-2.95.87-.89,1.54-1.91,2.02-3.02l18.19-.17c2.18-.02,3.94-1.81,3.92-3.99-.02-2.17-1.79-3.92-3.95-3.92h-.04l-18.19.17c-1.55-3.42-4.98-5.8-8.96-5.8-.03,0-.06,0-.09,0-2.63.02-5.09,1.07-6.93,2.95-1.62,1.65-2.58,3.76-2.78,6.03l-9.47,4.6c-.58.28-1.23.43-1.88.44l-24.75.23c-.19-11.94-9.34-21.76-18.31-27.28,4.08-18.1-4.53-36.4-5.02-37.43l-.94-1.96-2.16-.25c-.95-.11-22.3-2.48-42.27,7.83-7.52-7.72-25.19-16.97-29.27-16.97s-21.76,9.25-29.27,16.97c-19.97-10.32-41.33-7.95-42.27-7.83l-2.16.25-.94,1.96c-.49,1.03-9.1,19.33-5.02,37.43-9.04,5.57-18.29,15.51-18.32,27.6-.01.4-.03,1.07-.05,1.94l-68.57.93c-2.18.03-3.93,1.82-3.9,4.01.03,2.17,1.79,3.9,3.95,3.9.02,0,.04,0,.05,0l68.42-.93c.03,3.61.14,7.88.4,12.4l-74.12,2.66c-2.18.08-3.89,1.91-3.81,4.09.08,2.13,1.83,3.81,3.95,3.81.05,0,.1,0,.14,0l74.45-2.67c.41,4.18.98,8.33,1.76,12.13l-81.68,4.69c-2.18.13-3.84,1.99-3.72,4.17.12,2.1,1.86,3.73,3.94,3.73.08,0,.15,0,.23,0l83.37-4.78c.43,1.17.9,2.25,1.41,3.23-1.06,2.96-2.07,5.93-3.03,8.87l-87.4,6.83c-2.18.17-3.8,2.07-3.63,4.25.16,2.07,1.89,3.65,3.94,3.65.1,0,.21,0,.31-.01l84.32-6.59c-.53,1.86-1.03,3.71-1.48,5.52-.06.23.11.43.35.45,8.78.73,14.02,1.59,17.8,2.66,2.79.79,5.2,2.51,6.78,4.86,4.84,7.21,9.65,13.22,16.32,18.52,23.29,18.48,44.34,26.31,56.92,28.11l.58.06.58-.06c12.58-1.8,33.64-9.63,56.92-28.11,6.67-5.29,11.47-11.3,16.32-18.52,1.58-2.35,3.99-4.07,6.78-4.86,3.78-1.06,9.02-1.93,17.8-2.66.24-.02.41-.22.35-.45-1.5-6.02-3.45-12.35-5.64-18.72l23.7-1.62c.64-.04,1.3.06,1.9.3l9.79,3.85c.37,2.25,1.5,4.28,3.24,5.8,1.81,1.58,4.07,2.42,6.45,2.42.23,0,.46,0,.68-.02,4.01-.27,7.29-2.93,8.58-6.48l14.26-.97c2.18-.15,3.82-2.03,3.67-4.21-.15-2.18-2.04-3.83-4.21-3.67l-14.26.97c-1.76-3.35-5.38-5.54-9.38-5.25-2.87.2-5.37,1.62-7.03,3.72l-8.9-3.5c-1.68-.66-3.53-.95-5.34-.83l-22.79,1.56c.83-2.43,1.55-5.3,2.15-8.62.19.03.39.06.59.06.07,0,.13,0,.2,0l50.89-2.54c2.18-.11,3.86-1.96,3.75-4.15-.11-2.18-1.95-3.84-4.15-3.75l-50.16,2.51c.29-2.64.54-5.49.73-8.54l93.13-2.88c2.18-.07,3.9-1.89,3.83-4.07-.07-2.18-1.86-3.87-4.07-3.83Zm-46.6-21.69h.03c2,0,3.63,1.61,3.65,3.61,0,.97-.36,1.89-1.04,2.59-.68.7-1.59,1.08-2.57,1.09-1.98.05-3.66-1.6-3.68-3.61-.02-2.01,1.6-3.66,3.61-3.68Zm-8.32,63.99c.64-.73,1.53-1.18,2.5-1.24.08,0,.17,0,.25,0,1.9,0,3.51,1.48,3.64,3.4.14,2.01-1.38,3.75-3.39,3.89-.98.07-1.91-.25-2.65-.89-.73-.64-1.18-1.53-1.24-2.5s.25-1.91.89-2.65Zm-225.58-55.41v-.12c0-8.21,6.56-15.5,13.02-19.93,1.66,3.59,3.95,7.07,7.07,10.28l5.67-5.51c-14.24-14.67-6.8-37.54-4.07-44.46,6-.3,23.06-.22,38.08,8.6l3.33,1.96,2.03-3.28c3.32-5.37,20.89-15.12,24.95-16.15,4.06,1.02,21.63,10.78,24.95,16.15l2.03,3.28,3.33-1.96c14.96-8.78,32.07-8.88,38.08-8.59,2.75,6.92,10.21,29.74-4.08,44.45l5.67,5.51c3.12-3.22,5.41-6.7,7.07-10.28,6.47,4.43,13.02,11.72,13.02,19.93v.12c0,.1.32,10.41-.35,21.96-.51,8.81-1.38,15.03-2.33,19.41-4.39-11.15-9.02-21.6-12.7-29.68-7.94-17.43-22.23-30.64-38.49-41.5-2.72-1.81-5.26-3.55-7.62-5.46-.1-.08-.05-.12.12-.12.93,0,5.65,1.13,12.16,3,.23.07.47.1.73.1.88,0,1.84-.37,2.38-.96,4.58-5,9.74-6.99,13.33-6.99,1.27,0,2.35.25,3.13.7,2.58,1.49,2.02,6.37,1.63,7.1-.02.03-.02.04-.02.04.02,0,2.02-3.56,2.41-9.26.22-4.46-1.95-6.18-1.42-11.29-3.16.52-13.1-.69-30.11,10.25-.26.17-.69.28-1.03.28-.06,0-.11,0-.16,0-5.55-.72-22.35-7.88-31.33-10.51-.08,0-.14,0-.21,0h-.36c-.08,0-.14,0-.22,0-8.97,2.63-25.78,9.79-31.33,10.51-.05,0-.1,0-.16,0-.34,0-.77-.12-1.03-.28-17.01-10.94-26.95-9.73-30.11-10.25.53,5.11-1.64,6.83-1.42,11.29.4,5.71,2.39,9.26,2.41,9.26,0,0,0-.01-.02-.04-.38-.73-.95-5.61,1.63-7.1.79-.45,1.86-.7,3.13-.7,3.6,0,8.75,2,13.33,6.99.54.59,1.5.96,2.38.96.25,0,.5-.03.73-.1,6.51-1.87,11.23-3,12.16-3,.17,0,.21.04.12.12-2.36,1.91-4.9,3.65-7.62,5.46-16.26,10.86-30.55,24.07-38.49,41.5-3.69,8.1-8.33,18.59-12.73,29.76-2.5-11.63-3.07-29.83-2.71-41.45Zm102.62-9.8c-2.14-.92-6.97-3.23-10.71-3.84-.68-.11-1.24.48-1,1.07l.46,1.89c.12.28.25.56.39.83l.11.2c1,1.84,2.23,3.67,1.86,5.69l-3.04,11.75s-.24.6-.64.6-.64-.6-.64-.6l-3.04-11.75c-.38-2.02.85-3.86,1.86-5.69l.11-.2c.15-.27.28-.55.39-.83l.46-1.89c.24-.59-.32-1.18-1-1.07-3.74.61-8.57,2.92-10.71,3.84-2.44,1.05-6.6,2.42-8.67,4.05-2.08,1.43-2.72,1.93-2.87,1.52s-.03-.89.43-2.17,1.69-3.26,1.69-3.26c1.73-2.42,4.02-3.35,6.93-4.54l15.07-5.73-.07-.03h.13l-.07.03,15.07,5.73c2.91,1.19,5.19,2.12,6.93,4.54,0,0,1.23,1.98,1.69,3.26.46,1.28.59,1.76.43,2.17s-.79-.08-2.87-1.52c-2.07-1.62-6.23-3-8.67-4.05Zm.96,10.07c-2.73,3.55-3.81,11.23-4.16,10.89-.26-.25-1.02-5.23-1.89-10.34-.67-3.93-1.39-5.92-1.87-7.64-.05-.18.43-.15,1.83.55l4.92,2.8c1.4,1.06,1.95,2.74,1.17,3.75Zm-19.14-7.1c-.48,1.72-1.2,3.72-1.87,7.64-.87,5.12-1.64,10.09-1.89,10.34-.35.34-1.44-7.34-4.16-10.89-.78-1.01-.23-2.7,1.17-3.75l4.92-2.8c1.41-.7,1.88-.72,1.83-.55Zm24.25-12.18l-18.58-5.63-18.58,5.63c-.12.03-11.35,5.19-11.19,4.51.27-1.16,5.21-3.5,10.55-9.34,1.44-1.57,6.47-2.59,7.11-2.8,4.59-1.47,8.83-2.35,11.64-3.45.3-.12.62-.12.92,0,2.81,1.1,7.05,1.98,11.64,3.45.63.2,5.67,1.23,7.11,2.8,5.35,5.83,10.28,8.18,10.55,9.34.16.69-11.06-4.47-11.19-4.51Zm-44.47-8.66c-.16-.12,3.7-4.87,10.33-7.66.56-.24,2.81-1.3,3.44-1.5,4.24-1.36,8.19-2.9,10.98-4.07.72-.3,1.54-.3,2.26,0,2.79,1.16,6.74,2.71,10.98,4.07.63.2,2.88,1.27,3.44,1.5,6.64,2.79,10.49,7.53,10.33,7.66-.61.47-4.84-1.68-5.81-2.06-.12-.05-.23-.08-.35-.12l-18.96-5.15c-.51-.14-1.06-.14-1.57,0l-18.92,5.15c-.12.03-.24.07-.35.12-.97.38-5.21,2.53-5.81,2.06Zm104.34,98.9c-4.6,1.29-8.57,4.15-11.19,8.04-5.2,7.75-9.46,12.6-14.69,16.75-26.14,20.74-46.24,25.4-52.57,26.39-6.34-1-26.43-5.66-52.57-26.39-5.23-4.15-9.48-9-14.69-16.75-2.61-3.89-6.58-6.75-11.19-8.04-2.85-.8-6.2-1.45-10.4-2,4.35-14.56,11.38-32.45,21.35-54.34,6.33-13.91,18.02-26.42,35.71-38.24.35-.23.7-.47,1.05-.71-3.1,5.1-8.86,15.76-8.1,21.16.44,1.44,3.37,2.28,8.21,3.71,2.56.76,5.59,1.27,9.2,3.57,7.36,4.69,7.15,9.41,7.67,12.3.19,1.06.23,2.14.1,3.22h0s-1.01,8.48-1.01,8.48c-.04.39-.1.78-.19,1.16l-1.95,13.19c-.13.73-.44,5.42-.35,6.16l.65,2.12c.56,3.9,4.89-.13,4.92-.14,2.8-1.37,5.83.14,5.83.14,0,0,2.78,2.03,5.71,2.03h.06c2.93,0,5.71-2.03,5.71-2.03,0,0,3.03-1.51,5.83-.14.03.01,4.36,4.04,4.92.14l.65-2.12c.09-.74-.22-5.42-.35-6.16l-1.95-13.19c-.08-.39-.14-.77-.19-1.16l-1.01-8.49h0c-.13-1.06-.09-2.14.1-3.21.52-2.88.31-7.61,7.67-12.3,3.61-2.3,6.64-2.81,9.2-3.57,4.85-1.43,7.78-2.27,8.21-3.71.75-5.4-5.01-16.06-8.1-21.16.35.24.71.48,1.05.71,17.7,11.82,29.38,24.33,35.71,38.24,9.97,21.9,17,39.78,21.35,54.34-4.2.55-7.55,1.2-10.4,2Z"/>
  </g>
</svg>